<svg version="1.1" id="Layer_1" xmlns="http://www.w3.org/2000/svg" xmlns:xlink="http://www.w3.org/1999/xlink" x="0px" y="0px"
	 width="100%" viewBox="0 0 512 512" enable-background="new 0 0 512 512" xml:space="preserve">
<path fill="#000000" opacity="1.000000" stroke="none" 
	d="
M336.000000,513.000000 
	C224.027206,513.000000 112.554405,513.000000 1.040803,513.000000 
	C1.040803,342.402191 1.040803,171.804352 1.040803,1.103257 
	C171.556137,1.103257 342.112366,1.103257 512.834290,1.103257 
	C512.834290,171.666534 512.834290,342.333252 512.834290,513.000000 
	C454.137665,513.000000 395.318817,513.000000 336.000000,513.000000 
M160.005310,71.289566 
	C159.351013,70.488205 158.696716,69.686836 157.660294,68.223343 
	C154.845642,67.484993 152.069778,66.466110 149.207748,66.070503 
	C144.247620,65.384903 139.511459,68.726845 136.491898,72.743698 
	C132.277435,78.350113 132.829544,84.280586 132.838379,90.707298 
	C132.877701,119.304436 132.316513,147.902191 132.006775,176.500076 
	C131.816055,194.109634 130.884201,211.568802 126.179993,228.742264 
	C123.911964,237.022064 123.495056,245.794464 121.967499,254.294861 
	C119.493767,268.060364 116.947456,281.816833 114.125786,295.514099 
	C112.783180,302.031555 110.441704,308.341492 109.061981,314.853363 
	C104.749237,335.208252 100.752289,355.629913 96.490288,375.995819 
	C93.433350,390.603363 90.202873,405.175629 86.889732,419.727142 
	C86.503876,421.421906 85.238045,422.992218 84.136742,424.434296 
	C80.440979,429.273529 76.735382,434.500397 77.208145,440.633270 
	C78.059631,451.679138 86.522560,456.239166 97.913124,454.915375 
	C100.914124,454.566620 103.736961,452.513428 106.596191,451.147797 
	C115.590233,446.852020 124.592644,442.571869 133.535706,438.171631 
	C144.118774,432.964478 154.729141,427.800812 165.155563,422.292480 
	C170.054077,419.704590 174.474792,416.228394 179.248489,413.383759 
	C184.214661,410.424469 189.405518,407.842651 194.377594,404.892639 
	C196.677200,403.528259 198.520172,401.356934 200.870285,400.123016 
	C205.263855,397.816193 210.083023,396.280426 214.354004,393.787933 
	C222.793167,388.862976 231.012131,383.555969 239.254669,378.301086 
	C242.740540,376.078766 245.898102,373.311890 249.478394,371.272766 
	C260.463257,365.016418 271.579010,358.989807 282.647034,352.879608 
	C286.855988,350.556000 290.965240,348.016632 295.310455,345.982422 
	C303.626892,342.089172 312.992584,339.734650 320.234985,334.434967 
	C328.485229,328.397827 338.237305,326.117889 346.648315,320.840912 
	C351.967712,317.503571 357.846527,315.060730 363.459595,312.187805 
	C371.572418,308.035461 379.581451,303.667450 387.803650,299.745483 
	C395.273468,296.182434 403.139648,293.431335 410.523926,289.712372 
	C420.924652,284.474152 431.498962,279.638153 441.347046,273.190979 
	C448.897522,268.247955 450.397461,258.944519 446.967712,251.344818 
	C446.325928,250.525040 445.684174,249.705261 444.712189,248.259552 
	C442.403625,247.171631 440.090057,246.094116 437.787476,244.993652 
	C432.893585,242.654709 428.005371,240.303848 423.003876,237.270325 
	C422.349884,236.808533 421.695892,236.346741 420.701355,235.251892 
	C417.282196,233.478180 413.828949,231.766617 410.453369,229.913498 
	C406.967804,227.999969 403.557831,225.948792 400.005676,223.262543 
	C399.017792,222.470032 398.029877,221.677505 396.729309,220.272202 
	C390.857819,216.834091 384.986328,213.395981 379.003876,209.270309 
	C378.349884,208.808517 377.695923,208.346725 376.754547,207.248184 
	C370.874634,203.818069 364.994690,200.387955 359.005676,196.262543 
	C358.017792,195.470032 357.029877,194.677505 355.763031,193.255539 
	C355.172455,192.675583 354.684509,191.828033 353.975739,191.556290 
	C345.112030,188.157608 338.290924,181.678680 330.661621,176.398209 
	C326.447998,173.481812 321.649597,171.410278 317.007874,168.304031 
	C316.352722,167.497849 315.697571,166.691666 314.712341,165.259781 
	C308.846497,161.825806 302.980682,158.391846 297.003876,154.270309 
	C296.349884,153.808517 295.695923,153.346725 294.670502,152.236115 
	C292.364380,151.244217 290.033142,150.306503 287.757080,149.249878 
	C281.863342,146.513840 275.993958,143.725388 270.003876,140.270309 
	C269.349884,139.808517 268.695923,139.346725 267.748383,138.240799 
	C261.203857,134.813156 254.659348,131.385498 248.003876,127.270264 
	C247.349899,126.808487 246.695923,126.346710 245.711472,125.259079 
	C235.641541,119.508438 225.604874,113.698395 215.487625,108.032242 
	C210.439377,105.204994 205.243744,102.640923 200.005661,99.262527 
	C199.017792,98.470032 198.029907,97.677536 196.722672,96.267250 
	C190.853378,92.830780 184.984100,89.394310 179.003159,85.263908 
	C178.335464,84.898155 177.667770,84.532410 176.364716,83.861938 
	C171.948090,81.560577 167.531448,79.259216 163.006287,76.267258 
	C162.024292,74.813210 161.042282,73.359169 160.030350,71.973114 
	C160.030350,71.973114 160.098145,71.942772 160.005310,71.289566 
z"/>
<path fill="#F5844C" opacity="1.000000" stroke="none" 
	d="
M400.114777,223.957825 
	C403.557831,225.948792 406.967804,227.999969 410.453369,229.913498 
	C413.828949,231.766617 417.282196,233.478180 420.966888,235.867172 
	C421.859894,236.974258 422.487366,237.466064 423.114838,237.957870 
	C428.005371,240.303848 432.893585,242.654709 437.787476,244.993652 
	C440.090057,246.094116 442.403625,247.171631 444.894897,248.900391 
	C445.662872,250.360870 446.248108,251.180511 446.833344,252.000168 
	C450.397461,258.944519 448.897522,268.247955 441.347046,273.190979 
	C431.498962,279.638153 420.924652,284.474152 410.523926,289.712372 
	C403.139648,293.431335 395.273468,296.182434 387.803650,299.745483 
	C379.581451,303.667450 371.572418,308.035461 363.459595,312.187805 
	C357.846527,315.060730 351.967712,317.503571 346.648315,320.840912 
	C338.237305,326.117889 328.485229,328.397827 320.234985,334.434967 
	C312.992584,339.734650 303.626892,342.089172 295.310455,345.982422 
	C290.965240,348.016632 286.855988,350.556000 282.647034,352.879608 
	C271.579010,358.989807 260.463257,365.016418 249.478394,371.272766 
	C245.898102,373.311890 242.740540,376.078766 239.254669,378.301086 
	C231.012131,383.555969 222.793167,388.862976 214.354004,393.787933 
	C210.083023,396.280426 205.263855,397.816193 200.870285,400.123016 
	C198.520172,401.356934 196.677200,403.528259 194.377594,404.892639 
	C189.405518,407.842651 184.214661,410.424469 179.248489,413.383759 
	C174.474792,416.228394 170.054077,419.704590 165.155563,422.292480 
	C154.729141,427.800812 144.118774,432.964478 133.535706,438.171631 
	C124.592644,442.571869 115.590233,446.852020 106.596191,451.147797 
	C103.736961,452.513428 100.914124,454.566620 97.913124,454.915375 
	C86.522560,456.239166 78.059631,451.679138 77.208145,440.633270 
	C76.735382,434.500397 80.440979,429.273529 84.136742,424.434296 
	C85.238045,422.992218 86.503876,421.421906 86.889732,419.727142 
	C90.202873,405.175629 93.433350,390.603363 96.490288,375.995819 
	C100.752289,355.629913 104.749237,335.208252 109.061981,314.853363 
	C110.441704,308.341492 112.783180,302.031555 114.125786,295.514099 
	C116.947456,281.816833 119.493767,268.060364 121.967499,254.294861 
	C123.495056,245.794464 123.911964,237.022064 126.179993,228.742264 
	C130.884201,211.568802 131.816055,194.109634 132.006775,176.500076 
	C132.316513,147.902191 132.877701,119.304436 132.838379,90.707298 
	C132.829544,84.280586 132.277435,78.350113 136.491898,72.743698 
	C139.511459,68.726845 144.247620,65.384903 149.207748,66.070503 
	C152.069778,66.466110 154.845642,67.484993 157.876465,68.895020 
	C158.761154,70.358727 159.429642,71.150749 160.098145,71.942772 
	C160.098145,71.942772 160.030350,71.973114 160.058319,72.306091 
	C161.095810,74.078667 162.105316,75.518265 163.114822,76.957855 
	C167.531448,79.259216 171.948090,81.560577 176.798492,84.284737 
	C177.859772,85.124306 178.487289,85.541077 179.114807,85.957840 
	C184.984100,89.394310 190.853378,92.830780 196.953400,96.908836 
	C198.161026,98.352882 199.137894,99.155350 200.114777,99.957809 
	C205.243744,102.640923 210.439377,105.204994 215.487625,108.032242 
	C225.604874,113.698395 235.641541,119.508438 245.971939,125.870773 
	C246.859879,126.974258 247.487350,127.466049 248.114822,127.957848 
	C254.659348,131.385498 261.203857,134.813156 267.990417,138.861633 
	C268.859894,139.974258 269.487366,140.466064 270.114838,140.957870 
	C275.993958,143.725388 281.863342,146.513840 287.757080,149.249878 
	C290.033142,150.306503 292.364380,151.244217 294.951477,152.859283 
	C295.859894,153.974258 296.487366,154.466064 297.114838,154.957870 
	C302.980682,158.391846 308.846497,161.825806 314.903259,165.914749 
	C315.767761,167.365768 316.441284,168.161819 317.114838,168.957870 
	C321.649597,171.410278 326.447998,173.481812 330.661621,176.398209 
	C338.290924,181.678680 345.112030,188.157608 353.975739,191.556290 
	C354.684509,191.828033 355.172455,192.675583 355.973572,193.902954 
	C357.161011,195.352844 358.137909,196.155334 359.114777,196.957825 
	C364.994690,200.387955 370.874634,203.818069 376.993469,207.865326 
	C377.859894,208.974258 378.487366,209.466064 379.114838,209.957870 
	C384.986328,213.395981 390.857819,216.834091 396.956726,220.911285 
	C398.161011,222.352859 399.137909,223.155334 400.114777,223.957825 
z"/>
<path fill="#F5844C" opacity="1.000000" stroke="none" 
	d="
M163.060547,76.612556 
	C162.105316,75.518265 161.095810,74.078667 160.073288,72.272102 
	C161.042282,73.359169 162.024292,74.813210 163.060547,76.612556 
z"/>
<path fill="#F5844C" opacity="1.000000" stroke="none" 
	d="
M200.060211,99.610168 
	C199.137894,99.155350 198.161026,98.352882 197.113098,97.217728 
	C198.029907,97.677536 199.017792,98.470032 200.060211,99.610168 
z"/>
<path fill="#F5844C" opacity="1.000000" stroke="none" 
	d="
M359.060242,196.610184 
	C358.137909,196.155334 357.161011,195.352844 356.113068,194.217682 
	C357.029877,194.677505 358.017792,195.470032 359.060242,196.610184 
z"/>
<path fill="#F5844C" opacity="1.000000" stroke="none" 
	d="
M400.060242,223.610184 
	C399.137909,223.155334 398.161011,222.352859 397.113068,221.217682 
	C398.029877,221.677505 399.017792,222.470032 400.060242,223.610184 
z"/>
<path fill="#F5844C" opacity="1.000000" stroke="none" 
	d="
M160.051727,71.616165 
	C159.429642,71.150749 158.761154,70.358727 158.067535,69.226089 
	C158.696716,69.686836 159.351013,70.488205 160.051727,71.616165 
z"/>
<path fill="#F5844C" opacity="1.000000" stroke="none" 
	d="
M317.061340,168.630951 
	C316.441284,168.161819 315.767761,167.365768 315.068298,166.227600 
	C315.697571,166.691666 316.352722,167.497849 317.061340,168.630951 
z"/>
<path fill="#F5844C" opacity="1.000000" stroke="none" 
	d="
M446.900513,251.672485 
	C446.248108,251.180511 445.662872,250.360870 445.060028,249.213348 
	C445.684174,249.705261 446.325928,250.525040 446.900513,251.672485 
z"/>
<path fill="#F5844C" opacity="1.000000" stroke="none" 
	d="
M179.058990,85.610870 
	C178.487289,85.541077 177.859772,85.124306 177.116165,84.437103 
	C177.667770,84.532410 178.335464,84.898155 179.058990,85.610870 
z"/>
<path fill="#F5844C" opacity="1.000000" stroke="none" 
	d="
M248.059357,127.614059 
	C247.487350,127.466049 246.859879,126.974258 246.137177,126.183701 
	C246.695923,126.346710 247.349899,126.808487 248.059357,127.614059 
z"/>
<path fill="#F5844C" opacity="1.000000" stroke="none" 
	d="
M270.059357,140.614090 
	C269.487366,140.466064 268.859894,139.974258 268.137177,139.183685 
	C268.695923,139.346725 269.349884,139.808517 270.059357,140.614090 
z"/>
<path fill="#F5844C" opacity="1.000000" stroke="none" 
	d="
M297.059357,154.614090 
	C296.487366,154.466064 295.859894,153.974258 295.137177,153.183685 
	C295.695923,153.346725 296.349884,153.808517 297.059357,154.614090 
z"/>
<path fill="#F5844C" opacity="1.000000" stroke="none" 
	d="
M379.059357,209.614090 
	C378.487366,209.466064 377.859894,208.974258 377.137177,208.183685 
	C377.695923,208.346725 378.349884,208.808517 379.059357,209.614090 
z"/>
<path fill="#F5844C" opacity="1.000000" stroke="none" 
	d="
M423.059357,237.614105 
	C422.487366,237.466064 421.859894,236.974258 421.137177,236.183701 
	C421.695892,236.346741 422.349884,236.808533 423.059357,237.614105 
z"/>
</svg>